
<svg xmlns="http://www.w3.org/2000/svg" aria-label="ByteMeet logotype" role="img" viewBox="0 15 106.05 45" data-asc="1" width="154.194" height="27.4">
  <path d="M-45.35 15q4.8 0 7.15 2.25t2.35 6.65q0 2.35-1.15 4.12-1.15 1.78-3.4 2.75-2.25.98-5.55.98l.2-2.25q1.55 0 3.55.42 2 .43 3.88 1.51 1.87 1.07 3.1 2.99Q-34 36.35-34 39.35q0 3.3-1.07 5.4-1.08 2.1-2.83 3.25t-3.75 1.58q-2 .42-3.85.42h-12.45q-1.3 0-2.17-.87-.88-.88-.88-2.18v-28.9q0-1.3.88-2.17.87-.88 2.17-.88zm-.9 5.9h-8.9l.65-.8v9.05l-.6-.45h9q1.45 0 2.6-.95t1.15-2.75q0-2.15-1.07-3.12-1.08-.98-2.83-.98m.4 13.7h-9.1l.45-.4v10.55l-.5-.5h9.5q2.3 0 3.65-1.23 1.35-1.22 1.35-3.67 0-2.25-.9-3.25t-2.15-1.25-2.3-.25M-8.9 23.25q1.3 0 2.15.88.85.87.85 2.17v21.25q0 4.6-1.72 7.33-1.73 2.72-4.63 3.92t-6.5 1.2q-1.6 0-3.4-.25T-25.1 59q-1.5-.65-2.07-1.62-.58-.98-.23-2.08.45-1.45 1.45-1.97 1-.53 2.1-.13.8.25 2.1.78 1.3.52 3 .52 2.3 0 3.83-.62 1.52-.63 2.3-2.11.77-1.47.77-4.02V44.4l1.05 1.2q-.85 1.65-2.12 2.73-1.28 1.07-3.03 1.62t-4 .55q-2.65 0-4.63-1.23-1.97-1.22-3.07-3.39-1.1-2.18-1.1-4.98V26.3q0-1.3.85-2.17.85-.88 2.15-.88t2.15.88q.85.87.85 2.17v12.8q0 3.25 1.42 4.57Q-19.9 45-17.35 45q1.75 0 2.95-.67 1.2-.68 1.85-2 .65-1.33.65-3.23V26.3q0-1.3.85-2.17.85-.88 2.15-.88m9.8.5h11.85q1.2 0 2 .8t.8 2q0 1.15-.8 1.92-.8.78-2 .78H.9q-1.2 0-2-.8t-.8-2q0-1.15.8-1.93.8-.77 2-.77m5.35-6.25q1.3 0 2.13.88.82.87.82 2.17V42.8q0 .7.27 1.15.28.45.75.65.48.2 1.03.2.6 0 1.1-.22.5-.23 1.15-.23.7 0 1.28.65.57.65.57 1.8 0 1.4-1.52 2.3-1.53.9-3.28.9-1.05 0-2.33-.17-1.27-.18-2.39-.85-1.13-.68-1.88-2.08t-.75-3.85v-22.5q0-1.3.88-2.17.87-.88 2.17-.88m27.15 33q-4.25 0-7.37-1.77-3.13-1.78-4.8-4.83-1.68-3.05-1.68-6.9 0-4.5 1.83-7.68 1.82-3.17 4.77-4.87t6.25-1.7q2.55 0 4.83 1.05 2.27 1.05 4.02 2.87Q43 28.5 44.03 30.9q1.02 2.4 1.02 5.1-.05 1.2-.95 1.95t-2.1.75H22.9l-1.5-5h18.35l-1.1 1v-1.35q-.1-1.45-1.02-2.6-.93-1.15-2.3-1.83-1.38-.67-2.93-.67-1.5 0-2.8.4T27.35 30t-1.5 2.55-.55 4.05q0 2.7 1.13 4.57 1.12 1.88 2.9 2.85 1.77.98 3.77.98 1.85 0 2.95-.3t1.78-.72q.67-.43 1.22-.73.9-.45 1.7-.45 1.1 0 1.83.75.72.75.72 1.75 0 1.35-1.4 2.45-1.3 1.1-3.65 1.92-2.35.83-4.85.83" fill="#fff"/>
  <path d="M53.15 14.95q.7 0 1.48.37.77.38 1.17.98L67.95 35l-2.5-.1L77.9 16.3q.95-1.35 2.45-1.35 1.2 0 2.15.85t.95 2.2v28.95q0 1.3-.85 2.18-.85.87-2.25.87t-2.27-.87q-.88-.88-.88-2.18V23.4l1.95.45-10.2 15.55q-.45.55-1.12.95-.68.4-1.38.35-.65.05-1.32-.35-.68-.4-1.13-.95l-9.55-15.1 1.3-2.65v25.3q0 1.3-.8 2.18-.8.87-2.1.87-1.25 0-2.05-.87-.8-.88-.8-2.18V18q0-1.25.92-2.15.93-.9 2.23-.9m49.9 35.55q-4.25 0-7.37-1.77-3.13-1.78-4.8-4.83-1.68-3.05-1.68-6.9 0-4.5 1.83-7.68 1.82-3.17 4.77-4.87t6.25-1.7q2.55 0 4.83 1.05 2.27 1.05 4.02 2.87 1.75 1.83 2.78 4.23 1.02 2.4 1.02 5.1-.05 1.2-.95 1.95t-2.1.75h-19.1l-1.5-5h18.35l-1.1 1v-1.35q-.1-1.45-1.02-2.6-.93-1.15-2.3-1.83-1.38-.67-2.93-.67-1.5 0-2.8.4T97 30t-1.5 2.55-.55 4.05q0 2.7 1.13 4.57 1.12 1.88 2.9 2.85 1.77.98 3.77.98 1.85 0 2.95-.3t1.78-.72q.67-.43 1.22-.73.9-.45 1.7-.45 1.1 0 1.83.75.72.75.72 1.75 0 1.35-1.4 2.45-1.3 1.1-3.65 1.92-2.35.83-4.85.83m29.5 0q-4.25 0-7.38-1.77-3.12-1.78-4.79-4.83-1.68-3.05-1.68-6.9 0-4.5 1.83-7.68 1.82-3.17 4.77-4.87t6.25-1.7q2.55 0 4.83 1.05 2.27 1.05 4.02 2.87 1.75 1.83 2.78 4.23 1.02 2.4 1.02 5.1-.05 1.2-.95 1.95t-2.1.75h-19.1l-1.5-5h18.35l-1.1 1v-1.35q-.1-1.45-1.02-2.6-.93-1.15-2.3-1.83-1.38-.67-2.93-.67-1.5 0-2.8.4T126.5 30t-1.5 2.55-.55 4.05q0 2.7 1.13 4.57 1.12 1.88 2.9 2.85 1.77.98 3.77.98 1.85 0 2.95-.3t1.78-.72q.67-.43 1.22-.73.9-.45 1.7-.45 1.1 0 1.83.75.72.75.72 1.75 0 1.35-1.4 2.45-1.3 1.1-3.65 1.92-2.35.83-4.85.83m17.2-26.75h11.85q1.2 0 2 .8t.8 2q0 1.15-.8 1.92-.8.78-2 .78h-11.85q-1.2 0-2-.8t-.8-2q0-1.15.8-1.93.8-.77 2-.77m5.35-6.25q1.3 0 2.13.88.82.87.82 2.17V42.8q0 .7.28 1.15.27.45.75.65.47.2 1.02.2.6 0 1.1-.22.5-.23 1.15-.23.7 0 1.28.65.57.65.57 1.8 0 1.4-1.52 2.3-1.53.9-3.28.9-1.05 0-2.32-.17-1.28-.18-2.41-.85-1.12-.68-1.87-2.08t-.75-3.85v-22.5q0-1.3.87-2.17.88-.88 2.18-.88" fill="#e94d37"/>
</svg>
